<svg width="27" height="30" viewBox="0 0 27 30" fill="none" xmlns="http://www.w3.org/2000/svg">
<g clip-path="url(#clip0_3_15)">
<path fill-rule="evenodd" clip-rule="evenodd" d="M13.264 26.725C20.3888 26.725 26.1646 20.9492 26.1646 13.8244C26.1646 6.69962 20.3888 0.923837 13.264 0.923837C6.13918 0.923837 0.363397 6.69962 0.363397 13.8244C0.363397 20.9492 6.13918 26.725 13.264 26.725ZM13.264 27.0884C20.5895 27.0884 26.528 21.1499 26.528 13.8244C26.528 6.49892 20.5895 0.56044 13.264 0.56044C5.93848 0.56044 0 6.49892 0 13.8244C0 21.1499 5.93848 27.0884 13.264 27.0884Z" fill="#55574A"/>
<path d="M13.4508 24.0993C13.4508 27.401 10.7743 30.0775 7.47266 30.0775C4.17103 30.0775 1.49453 27.401 1.49453 24.0993C1.49453 20.7977 4.17103 18.1212 7.47266 18.1212C10.7743 18.1212 13.4508 20.7977 13.4508 24.0993Z" fill="#3C5001"/>
<path d="M18.6816 13.0772C18.6816 15.6566 16.5906 17.7476 14.0112 17.7476C11.4318 17.7476 9.34082 15.6566 9.34082 13.0772C9.34082 10.4978 11.4318 8.40674 14.0112 8.40674C16.5906 8.40674 18.6816 10.4978 18.6816 13.0772Z" fill="#7FAA03"/>
<path d="M23.1653 3.54951C23.1653 5.50986 21.5761 7.09903 19.6157 7.09903C17.6554 7.09903 16.0662 5.50986 16.0662 3.54951C16.0662 1.58917 17.6554 0 19.6157 0C21.5761 0 23.1653 1.58917 23.1653 3.54951Z" fill="#AEF100"/>
</g>
<defs>
<clipPath id="clip0_3_15">
<rect width="27" height="30" fill="white"/>
</clipPath>
</defs>
</svg>
