<svg width="35" height="45" viewBox="0 0 35 45" fill="none" xmlns="http://www.w3.org/2000/svg">
<path d="M17.5 0C12.8604 0.00547347 8.41239 1.85097 5.13169 5.13167C1.85099 8.41237 0.00549209 12.8604 1.86182e-05 17.5C-0.00553825 21.2915 1.23294 24.9801 3.52547 28C3.52547 28 4.00274 28.6284 4.0807 28.7191L17.5 44.5454L30.9257 28.7111C30.9957 28.6268 31.4745 28 31.4745 28L31.4761 27.9952C33.7675 24.9766 35.0054 21.2897 35 17.5C34.9945 12.8604 33.149 8.41237 29.8683 5.13167C26.5876 1.85097 22.1396 0.00547347 17.5 0V0ZM17.5 23.8636C16.2414 23.8636 15.0111 23.4904 13.9646 22.7911C12.9181 22.0919 12.1024 21.098 11.6208 19.9352C11.1391 18.7724 11.0131 17.4929 11.2586 16.2585C11.5042 15.0241 12.1103 13.8902 13.0002 13.0002C13.8902 12.1102 15.0241 11.5042 16.2585 11.2586C17.4929 11.0131 18.7725 11.1391 19.9353 11.6208C21.0981 12.1024 22.0919 12.918 22.7912 13.9645C23.4904 15.011 23.8636 16.2414 23.8636 17.5C23.8615 19.1871 23.1904 20.8045 21.9974 21.9974C20.8045 23.1904 19.1871 23.8615 17.5 23.8636V23.8636Z" fill="#bd0003"/>
</svg>
